#N canvas 228 228 1920 1016 12;
#X obj 63 74 loadbang;
#X msg 63 98 \; pd dsp 1;
#X obj 143 47 netreceive -u 7000;
#X obj 143 98 f;
#X obj 174 98 + 1;
#X obj 143 122 mod 8;
#N canvas 0 50 450 250 (subpatch) 0;
#X array bassRiff 8 float 3;
#A 0 0 2 3 5 7 9 10 12;
#X coords 0 0 8 12 200 140 1 0 0;
#X restore 302 78 graph;
#X obj 143 194 mtof;
#X obj 257 112 del 5;
#X obj 143 146 tabread bassRiff;
#X floatatom 66 235 5 0 0 0 - - - 0;
#X floatatom 52 316 5 0 0 0 - - - 0;
#X floatatom 60 176 5 0 0 0 - - - 0;
#X msg 224 221 1 5;
#X obj 143 242 *~;
#X msg 255 184 0 550;
#X obj 143 218 phasor~;
#X obj 220 86 bng 15 250 50 0 empty empty empty 17 7 0 10 #fcfcfc #000000
#000000;
#X obj 231 264 vline~;
#X obj 143 170 + 48;
#X obj 143 266 *~ 0.8;
#X obj 143 346 dac~;
#X obj 143 322 lop~ 3000;
#X connect 0 0 1 0;
#X connect 2 0 3 0;
#X connect 2 0 17 0;
#X connect 3 0 4 0;
#X connect 3 0 5 0;
#X connect 4 0 3 1;
#X connect 5 0 9 0;
#X connect 5 0 12 0;
#X connect 7 0 11 0;
#X connect 7 0 16 0;
#X connect 8 0 15 0;
#X connect 9 0 19 0;
#X connect 13 0 18 0;
#X connect 14 0 20 0;
#X connect 15 0 18 0;
#X connect 16 0 14 0;
#X connect 17 0 8 0;
#X connect 17 0 13 0;
#X connect 18 0 14 1;
#X connect 19 0 7 0;
#X connect 19 0 10 0;
#X connect 20 0 22 0;
#X connect 22 0 21 0;
#X connect 22 0 21 1;
